<?xml version="1.0" standalone="no"?><!DOCTYPE svg PUBLIC "-//W3C//DTD SVG 1.1//EN" "http://www.w3.org/Graphics/SVG/1.1/DTD/svg11.dtd"><svg t="1539165394624" class="icon" style="" viewBox="0 0 1024 1024" version="1.1" xmlns="http://www.w3.org/2000/svg" p-id="1936" xmlns:xlink="http://www.w3.org/1999/xlink" width="200" height="200"><defs><style type="text/css"></style></defs><path d="M930.275 787.612v-552.07l29.05 20 0.088 555.883c0.773 43.55-29.414 67.429-51.714 67.249l-347.184 0.092c-9.333-0.201-23.32-29.543-23.32-29.543l393.08-61.611zM487.05 849.247s-13.896 29.318-23.228 29.607l-346.463-0.087c-27.359 0.087-53.147-28.78-53.147-67.275V255.651l30.483-20v551.961l392.355 61.635z" p-id="1937"></path><path d="M144.693 144.789c78.842 8.392 148.088 11.815 215.788 23.993 87.819 15.911 136.471 58.589 132.266 163.059l-0.067 483.5c-169.912-65.531-348.013-51.631-348.013-51.698l0.026-618.854M881.532 144.877V763.71s-177.991-13.875-347.987 51.631h-0.025l-0.087-483.5c-4.184-104.47 44.379-147.148 132.266-163.059 67.72-12.178 137.054-15.601 215.833-23.905" p-id="1938"></path></svg>