<?xml version="1.0" standalone="no"?><!DOCTYPE svg PUBLIC "-//W3C//DTD SVG 1.1//EN" "http://www.w3.org/Graphics/SVG/1.1/DTD/svg11.dtd"><svg t="1539165384595" class="icon" style="" viewBox="0 0 1041 1024" version="1.1" xmlns="http://www.w3.org/2000/svg" p-id="1589" xmlns:xlink="http://www.w3.org/1999/xlink" width="203.3203125" height="200"><defs><style type="text/css"></style></defs><path d="M969.897933 654.645514a459.760837 459.760837 0 0 0-183.886627-466.578011l-52.146955 73.04115a370.429297 370.429297 0 0 1 148.738342 372.465596c3.541389 0 7.082778-0.531208 10.712702-0.531208a146.702043 146.702043 0 0 1 76.582538 21.602473zM390.172542 215.778873a146.702043 146.702043 0 0 1-16.821599-68.348809 138.645382 138.645382 0 0 1 1.85923-21.956613A460.38058 460.38058 0 0 0 59.849475 522.374632l89.420075 7.791056a372.996805 372.996805 0 0 1 240.902992-314.386815zM518.63643 933.884043A370.783436 370.783436 0 0 1 265.604181 833.397128a147.764459 147.764459 0 0 1-74.369171 53.120836 459.760837 459.760837 0 0 0 515.62625 97.3882l-36.653377-81.894623a368.215929 368.215929 0 0 1-151.571453 31.872502z" p-id="1590"></path><path d="M390.172542 215.778873a147.675925 147.675925 0 1 0-14.962369-90.305422 138.645382 138.645382 0 0 0-1.85923 21.956613 146.702043 146.702043 0 0 0 16.821599 68.348809zM265.604181 833.397128a146.524973 146.524973 0 1 0-74.369171 53.120836 146.702043 146.702043 0 0 0 74.369171-53.120836zM969.897933 654.645514a146.702043 146.702043 0 0 0-76.582538-21.602473c-3.629924 0-7.171313 0-10.712702 0.531208a147.498855 147.498855 0 1 0 87.29524 21.071265z" p-id="1591"></path></svg>