<?xml version="1.0" standalone="no"?><!DOCTYPE svg PUBLIC "-//W3C//DTD SVG 1.1//EN" "http://www.w3.org/Graphics/SVG/1.1/DTD/svg11.dtd"><svg t="1539165391314" class="icon" style="" viewBox="0 0 1024 1024" version="1.1" xmlns="http://www.w3.org/2000/svg" p-id="1822" xmlns:xlink="http://www.w3.org/1999/xlink" width="200" height="200"><defs><style type="text/css"></style></defs><path d="M960.8 922.3S832.7 480.4 740.2 421.6c-4.9-3.1-10.7-4.7-16.5-4.9h-0.2c-8.3-0.3-16.4 2.5-22.7 7.9-28.7 24.9-61.3 96.8-91.3 178.4-63.6-175.3-145.6-366.2-214.4-411.7-7.5-5-16.2-7.7-25.2-8h-0.2c-12.1-0.4-24 3.8-33.1 11.8C221.1 296.7 63.3 922.2 63.3 922.2h897.4l0.1 0.1z m0 0M629.1 297.8c25.9 0 50.7-10.3 69-28.6 18.3-18.3 28.6-43.1 28.6-69 0-53.9-43.7-97.6-97.6-97.6-53.9 0-97.6 43.7-97.6 97.6 0 53.9 43.7 97.6 97.6 97.6z" p-id="1823"></path></svg>