<?xml version="1.0" standalone="no"?><!DOCTYPE svg PUBLIC "-//W3C//DTD SVG 1.1//EN" "http://www.w3.org/Graphics/SVG/1.1/DTD/svg11.dtd"><svg t="1539165397632" class="icon" style="" viewBox="0 0 1024 1024" version="1.1" xmlns="http://www.w3.org/2000/svg" p-id="2051" xmlns:xlink="http://www.w3.org/1999/xlink" width="200" height="200"><defs><style type="text/css"></style></defs><path d="M83.439484 379.474581h806.383484v142.302967H83.439484z" p-id="2052"></path><path d="M983.205161 906.504258l-26.756129-778.372129a131.038968 131.038968 0 0 0-40.53058-91.928774A130.014968 130.014968 0 0 0 822.338065 0.29729H178.076903a130.014968 130.014968 0 0 0-93.580387 35.906065A131.038968 131.038968 0 0 0 43.965935 128.132129L17.176774 906.504258h92.952774c-0.330323 3.699613-0.330323 7.399226 0 11.065807v25.566967c0 32.239484 26.029419 58.368 58.136775 58.368h84.892903c32.107355 0 58.136774-26.095484 58.136774-58.368v-25.566967c0.363355-3.666581 0.363355-7.366194 0-11.065807H693.347097c-0.330323 3.699613-0.330323 7.399226 0 11.065807v25.566967c0 32.239484 26.029419 58.368 58.136774 58.368h84.892903c32.140387 0 58.136774-26.095484 58.136774-58.368v-25.566967c0.363355-3.666581 0.363355-7.366194 0-11.065807h88.724646zM182.734452 784.648258a73.992258 73.992258 0 0 1-73.827097-74.124387 73.992258 73.992258 0 0 1 73.827097-74.124387 73.992258 73.992258 0 0 1 73.860129 74.124387 73.992258 73.992258 0 0 1-73.860129 74.124387z m-52.190968-268.387097l10.173935-319.554064c0-70.292645 25.467871-98.403097 90.409291-98.403097h538.161548c64.512 0 90.40929 27.681032 90.40929 98.436129l10.173936 319.521032H130.543484z m687.137032 268.387097a73.992258 73.992258 0 0 1-73.860129-74.124387 73.992258 73.992258 0 0 1 73.860129-74.124387 73.992258 73.992258 0 0 1 73.860129 74.124387c0 19.654194-7.795613 38.515613-21.636129 52.422194-13.873548 13.873548-32.635871 21.702194-52.190968 21.702193z" p-id="2053"></path></svg>