<?xml version="1.0" standalone="no"?><!DOCTYPE svg PUBLIC "-//W3C//DTD SVG 1.1//EN" "http://www.w3.org/Graphics/SVG/1.1/DTD/svg11.dtd"><svg t="1539165368677" class="icon" style="" viewBox="0 0 1024 1024" version="1.1" xmlns="http://www.w3.org/2000/svg" p-id="1475" xmlns:xlink="http://www.w3.org/1999/xlink" width="200" height="200"><defs><style type="text/css"></style></defs><path d="M829.737374 5.688889h-31.806061v288.581818c0 13.187879-15.90303 18.488889-23.789899 10.60202l-71.49899-71.49899-71.49899 71.49899c-7.886869 7.886869-23.789899 2.585859-23.789899-10.60202V5.688889H188.961616c-53.010101 0-92.70303 42.408081-92.70303 92.70303v828.767677c0 53.010101 42.408081 92.70303 92.70303 92.70303h646.076768c53.010101 0 92.70303-42.408081 92.70303-92.70303V95.676768c-5.30101-50.294949-47.709091-89.987879-98.00404-89.987879z m-500.49293 879.191919c0 13.187879-7.886869 21.20404-21.20404 21.20404-10.60202 0-21.20404-10.60202-21.20404-21.20404V132.783838c0-10.60202 10.60202-21.20404 21.20404-21.20404s21.20404 10.60202 21.20404 21.20404v752.09697z" p-id="1476"></path></svg>